<svg width="104" height="32" viewBox="0 0 104 32" fill="none" xmlns="http://www.w3.org/2000/svg">
<path d="M54.9889 8.04048C54.9889 9.19374 54.0596 10.1224 52.9064 10.1224C51.7531 10.1224 50.8245 9.19374 50.8245 8.04048C50.8245 6.88723 51.7214 5.9586 52.9064 5.9586C54.0923 5.9906 54.9889 6.91955 54.9889 8.04048ZM46.4041 12.2369V12.7495C46.4041 12.7495 45.4115 11.4676 43.2973 11.4676C39.8062 11.4676 37.083 14.1264 37.083 17.8099C37.083 21.4617 39.7742 24.1522 43.2973 24.1522C45.4435 24.1522 46.4041 22.8389 46.4041 22.8389V23.3832C46.4041 23.6395 46.5967 23.8312 46.8527 23.8312H49.4469V11.787H46.8527C46.5967 11.7879 46.4041 12.0126 46.4041 12.2369ZM46.4041 19.9561C45.9241 20.661 44.9629 21.2697 43.8099 21.2697C41.76 21.2697 40.1902 19.9884 40.1902 17.8099C40.1902 15.6317 41.76 14.3504 43.8099 14.3504C44.9312 14.3504 45.9561 14.9911 46.4041 15.6637V19.9561ZM51.3691 11.7879H54.4439V23.8322H51.3691V11.7879ZM97.3026 11.4673C95.1884 11.4673 94.1951 12.7492 94.1951 12.7492V5.9906H91.1203V23.8322H93.7152C93.9715 23.8322 94.1632 23.6078 94.1632 23.3835V22.8392C94.1632 22.8392 95.1564 24.1525 97.27 24.1525C100.762 24.1525 103.484 21.4626 103.484 17.8108C103.484 14.1591 100.762 11.4673 97.3026 11.4673ZM96.79 21.2373C95.6044 21.2373 94.6758 20.6293 94.1951 19.9241V15.6317C94.6758 14.9911 95.7007 14.3184 96.79 14.3184C98.8399 14.3184 100.409 15.5997 100.409 17.7779C100.409 19.9561 98.8402 21.2373 96.79 21.2373ZM89.5191 16.6893V23.8642H86.4436V17.0413C86.4436 15.0557 85.803 14.2544 84.0744 14.2544C83.1458 14.2544 82.1845 14.7351 81.5749 15.44V23.8325H78.5007V11.7882H80.9343C81.1906 11.7882 81.3829 12.0126 81.3829 12.2369V12.7495C82.2799 11.8202 83.4648 11.4676 84.6497 11.4676C85.9953 11.4676 87.1166 11.8526 88.0135 12.6212C89.1021 13.5181 89.5191 14.6711 89.5191 16.6893ZM71.0363 11.4673C68.9227 11.4673 67.9294 12.7492 67.9294 12.7492V5.9906H64.8546V23.8322H67.4488C67.7051 23.8322 67.8974 23.6078 67.8974 23.3835V22.8392C67.8974 22.8392 68.8907 24.1525 71.0042 24.1525C74.496 24.1525 77.2185 21.4626 77.2185 17.8108C77.2505 14.1588 74.528 11.4673 71.0363 11.4673ZM70.5236 21.2373C69.3387 21.2373 68.4101 20.6293 67.9294 19.9241V15.6317C68.4101 14.9911 69.435 14.3184 70.5236 14.3184C72.5742 14.3184 74.1434 15.5997 74.1434 17.7779C74.1434 19.9561 72.5742 21.2373 70.5236 21.2373ZM62.1958 11.4673C63.1244 11.4673 63.605 11.6279 63.605 11.6279V14.4784C63.605 14.4784 61.0425 13.6135 59.4413 15.4397V23.8638H56.3658V11.7879H58.9607C59.217 11.7879 59.4086 12.0122 59.4086 12.2366V12.7492C59.9859 12.0762 61.2352 11.4673 62.1958 11.4673ZM30.2608 22.7429C30.1008 22.3586 29.9404 21.9423 29.7804 21.5897C29.5238 21.0133 29.2675 20.4684 29.0438 19.9561L29.0118 19.9241C26.8013 15.1191 24.4314 10.2507 21.9326 5.4463L21.8366 5.25365C21.5738 4.75525 21.3177 4.25336 21.0683 3.74809C20.7477 3.17114 20.4277 2.56315 19.915 1.9862C18.8901 0.704946 17.4165 0 15.8473 0C14.2454 0 12.8042 0.70495 11.7475 1.92189C11.2669 2.49819 10.9143 3.10683 10.5943 3.68377C10.3443 4.18872 10.0882 4.69061 9.82597 5.18934L9.72965 5.38197C7.26314 10.1864 4.86095 15.0551 2.65075 19.8598L2.61844 19.9234C2.39445 20.4367 2.13781 20.981 1.88149 21.557C1.7215 21.9096 1.5615 22.294 1.4015 22.7103C0.984871 23.8952 0.856548 25.0165 1.01718 26.17C1.3695 28.5726 2.97074 30.5898 5.18126 31.4874C6.0142 31.84 6.87915 32 7.77577 32C8.03208 32 8.35209 31.968 8.60872 31.9357C9.66598 31.8077 10.7549 31.4557 11.8122 30.8471C13.1254 30.1101 14.3747 29.0535 15.7839 27.5159C17.1932 29.0535 18.4744 30.1101 19.7557 30.8471C20.8133 31.4557 21.9019 31.8077 22.9588 31.9357C23.2151 31.9683 23.5358 32 23.7921 32C24.689 32 25.5857 31.84 26.3863 31.4874C28.6288 30.5898 30.198 28.5406 30.5507 26.17C30.8051 25.0491 30.6771 23.9285 30.2608 22.7429ZM15.815 24.4085C14.0851 22.2303 12.9638 20.1804 12.5798 18.4512C12.4198 17.7142 12.3875 17.0736 12.4838 16.497C12.5475 15.9843 12.7401 15.5357 12.9965 15.1514C13.6051 14.2871 14.63 13.7421 15.8153 13.7421C17.0009 13.7421 18.0578 14.2548 18.6344 15.1514C18.8908 15.5357 19.0827 15.9846 19.1474 16.497C19.2431 17.0739 19.2111 17.7462 19.0511 18.4512C18.6655 20.1484 17.5442 22.1986 15.815 24.4085ZM28.5949 25.914C28.3709 27.5796 27.2496 29.0215 25.6804 29.6621C24.9117 29.9821 24.0785 30.0784 23.2462 29.9821C22.4456 29.8858 21.6443 29.6295 20.812 29.1495C19.6587 28.5082 18.5058 27.5159 17.1602 26.042C19.2741 23.4478 20.5554 21.077 21.036 18.9635C21.2603 17.9702 21.2926 17.0736 21.196 16.2403C21.0683 15.4397 20.7797 14.7027 20.3314 14.0621C19.3378 12.6202 17.6719 11.7879 15.8146 11.7879C13.9574 11.7879 12.2915 12.6529 11.2986 14.0621C10.8503 14.7027 10.5616 15.4397 10.4336 16.2403C10.3056 17.0736 10.3373 18.0022 10.5936 18.9635C11.0739 21.077 12.3872 23.4795 14.4691 26.074C13.1558 27.5476 11.9706 28.5409 10.8173 29.1815C9.98437 29.6621 9.18407 29.9184 8.38344 30.0141C7.51882 30.1104 6.68556 29.9821 5.94893 29.6941C4.37968 29.0535 3.25842 27.6116 3.03443 25.946C2.93843 25.1454 3.00211 24.3448 3.32274 23.4478C3.41842 23.1272 3.57906 22.8072 3.73905 22.4229C3.96337 21.9103 4.21904 21.3653 4.47568 20.821L4.508 20.7573C6.71788 15.9843 9.08807 11.1156 11.5546 6.37523L11.6506 6.1826C11.9072 5.70261 12.1635 5.18998 12.4195 4.70935C12.6758 4.19672 12.9638 3.71609 13.3165 3.29945C13.9891 2.53147 14.8857 2.11452 15.879 2.11452C16.8722 2.11452 17.7689 2.53147 18.4415 3.29945C18.7941 3.71705 19.0821 4.19768 19.3384 4.70935C19.5951 5.18998 19.8514 5.70261 20.107 6.1826L20.2034 6.37523C22.6323 11.1353 24.971 15.9409 27.2183 20.7893V20.8213C27.4749 21.3346 27.6989 21.9106 27.9552 22.4239C28.1152 22.8075 28.2755 23.1275 28.3715 23.4482C28.6272 24.2802 28.7232 25.0814 28.5949 25.914Z" fill="#191825" fill-opacity="0.5"/>
</svg>
