<svg width="189" height="32" viewBox="0 0 189 32" fill="none" xmlns="http://www.w3.org/2000/svg">
<mask id="mask0_1156_1295" style="mask-type:luminance" maskUnits="userSpaceOnUse" x="0" y="0" width="189" height="32">
<path d="M188.746 0H0.142578V32H188.746V0Z" fill="white"/>
</mask>
<g mask="url(#mask0_1156_1295)">
<mask id="mask1_1156_1295" style="mask-type:luminance" maskUnits="userSpaceOnUse" x="0" y="0" width="189" height="32">
<path d="M188.746 0H0.142578V32H188.746V0Z" fill="white"/>
</mask>
<g mask="url(#mask1_1156_1295)">
<path d="M74.0996 3.50239C74.0996 1.9221 75.3815 0.632812 76.9692 0.632812C78.5495 0.632812 79.8388 1.91473 79.8388 3.50239C79.7835 5.08268 78.45 6.31671 76.866 6.26145C75.3631 6.2062 74.1585 5.00164 74.0996 3.50239Z" fill="#191825" fill-opacity="0.5"/>
</g>
<mask id="mask2_1156_1295" style="mask-type:luminance" maskUnits="userSpaceOnUse" x="0" y="0" width="189" height="32">
<path d="M188.746 0H0.142578V32H188.746V0Z" fill="white"/>
</mask>
<g mask="url(#mask2_1156_1295)">
<path d="M119.324 22.6191C119.324 21.0278 120.606 19.7422 122.182 19.7422C123.77 19.7422 125.056 21.0278 125.056 22.6191C125.056 24.2068 123.77 25.4924 122.182 25.4924C120.606 25.4924 119.324 24.2031 119.324 22.6191Z" fill="#191825" fill-opacity="0.5"/>
</g>
<mask id="mask3_1156_1295" style="mask-type:luminance" maskUnits="userSpaceOnUse" x="0" y="0" width="189" height="32">
<path d="M188.746 0H0.142578V32H188.746V0Z" fill="white"/>
</mask>
<g mask="url(#mask3_1156_1295)">
<path d="M27.0703 21.3775C24.6059 21.3775 22.8857 19.4178 22.8857 16.6145C22.8857 13.815 24.6022 11.8553 27.0703 11.8553C29.5494 11.8553 31.2881 13.815 31.2881 16.6145C31.2844 19.462 29.5899 21.3775 27.0703 21.3775ZM27.0703 7.67061C21.8505 7.67061 18.0601 11.4316 18.0601 16.6145C18.0601 21.7975 21.8542 25.5585 27.0703 25.5585C32.3158 25.5585 36.1174 21.7975 36.1174 16.6182C36.1174 11.4316 32.3085 7.67061 27.0703 7.67061ZM68.5521 17.064C68.3716 16.714 68.1395 16.3862 67.8706 16.0988L67.7122 15.9331L67.878 15.7747C68.1174 15.5205 68.3642 15.2221 68.5963 14.8759L73.2045 8.02424H67.609L64.1464 13.384C63.9512 13.675 63.557 13.8113 62.9639 13.8113H62.172V3.67751C62.172 1.65149 60.9121 1.37891 59.5455 1.37891H57.2101L57.2137 25.2933H62.1683V18.1249H62.6324C63.196 18.1249 63.5791 18.1912 63.7596 18.4969L66.4929 23.6577C67.2591 25.0575 68.0179 25.2969 69.4472 25.2969H73.2561L70.4234 20.6224L68.5521 17.064ZM92.6211 7.63377C90.0978 7.63377 88.4881 8.7536 87.5892 9.70399L87.2909 10.0097L87.184 9.59716C86.9188 8.58047 86.0274 8.02792 84.6828 8.02792H82.4616L82.4763 25.2969H87.4014V17.3402C87.4014 16.5593 87.5008 15.8889 87.7071 15.27C88.256 13.4061 89.7847 12.242 91.6928 12.242C93.2289 12.242 93.8331 13.0524 93.8331 15.1521V22.6742C93.8331 24.4607 94.6582 25.3006 96.4521 25.3006H98.7913L98.7802 14.3159C98.7802 9.93606 96.6474 7.63377 92.6211 7.63377ZM77.0319 8.02424H74.6964L74.7111 21.3775V25.2933H77.2013L77.2897 25.2969L78.4538 25.2933H79.6067V25.2896H79.6178L79.6288 10.6507C79.6215 8.88253 78.7779 8.02424 77.0319 8.02424ZM46.4059 21.3775C43.9415 21.3775 42.2212 19.4178 42.2212 16.6145C42.2212 13.815 43.9415 11.8553 46.4059 11.8553C48.8813 11.8553 50.6237 13.815 50.6237 16.6145C50.62 19.462 48.9255 21.3775 46.4059 21.3775ZM46.4059 7.67061C41.1824 7.67061 37.3883 11.4316 37.3883 16.6145C37.3883 21.7975 41.1824 25.5585 46.4059 25.5585C51.6404 25.5585 55.4529 21.7975 55.4529 16.6182C55.4529 11.4316 51.644 7.67061 46.4059 7.67061Z" fill="#191825" fill-opacity="0.5"/>
</g>
</g>
<mask id="mask4_1156_1295" style="mask-type:luminance" maskUnits="userSpaceOnUse" x="0" y="0" width="189" height="32">
<path d="M188.746 0H0.142578V32H188.746V0Z" fill="white"/>
</mask>
<g mask="url(#mask4_1156_1295)">
<mask id="mask5_1156_1295" style="mask-type:luminance" maskUnits="userSpaceOnUse" x="0" y="0" width="189" height="32">
<path d="M188.706 0.628906H0.142578V31.9585H188.706V0.628906Z" fill="white"/>
</mask>
<g mask="url(#mask5_1156_1295)">
<mask id="mask6_1156_1295" style="mask-type:luminance" maskUnits="userSpaceOnUse" x="0" y="0" width="189" height="32">
<path d="M188.746 0H0.142578V32H188.746V0Z" fill="white"/>
</mask>
<g mask="url(#mask6_1156_1295)">
<path d="M151.935 21.3749C149.471 21.3749 147.75 19.4152 147.75 16.6119C147.75 13.8123 149.471 11.8526 151.935 11.8526C154.414 11.8526 156.153 13.8123 156.153 16.6119C156.153 19.4594 154.455 21.3749 151.935 21.3749ZM151.935 7.66797C146.712 7.66797 142.917 11.429 142.917 16.6119C142.917 21.7948 146.704 25.5558 151.935 25.5558C157.173 25.5558 160.982 21.7948 160.982 16.6156C160.982 11.429 157.17 7.66797 151.935 7.66797Z" fill="#191825" fill-opacity="0.5"/>
</g>
<mask id="mask7_1156_1295" style="mask-type:luminance" maskUnits="userSpaceOnUse" x="0" y="0" width="189" height="32">
<path d="M188.746 0H0.142578V32H188.746V0Z" fill="white"/>
</mask>
<g mask="url(#mask7_1156_1295)">
<path d="M109.157 20.6118C106.464 20.6118 105.51 18.2653 105.51 16.0662C105.51 15.0937 105.757 11.9368 108.906 11.9368C110.468 11.9368 112.55 12.3862 112.55 16.2246C112.546 19.853 110.7 20.6118 109.157 20.6118ZM115.102 7.98054C114.167 7.98054 113.448 8.35259 113.087 9.03406L112.955 9.29929L112.726 9.09669C111.931 8.40784 110.505 7.59375 108.195 7.59375C103.591 7.59375 100.493 11.049 100.493 16.1988C100.493 21.3412 103.701 24.9328 108.291 24.9328C109.857 24.9328 111.098 24.5644 112.078 23.8203L112.454 23.5367V24.0155C112.454 26.3252 110.962 27.5961 108.258 27.5961C106.939 27.5961 105.746 27.2756 104.946 26.9846C103.904 26.6678 103.289 26.933 102.869 27.9755L102.475 28.9406L101.922 30.3514L102.265 30.5319C103.996 31.4529 106.25 31.998 108.284 31.998C112.476 31.998 117.371 29.8541 117.371 23.8129L117.386 7.96949H115.102" fill="#191825" fill-opacity="0.5"/>
</g>
</g>
</g>
<mask id="mask8_1156_1295" style="mask-type:luminance" maskUnits="userSpaceOnUse" x="0" y="0" width="189" height="32">
<path d="M188.746 0H0.142578V32H188.746V0Z" fill="white"/>
</mask>
<g mask="url(#mask8_1156_1295)">
<mask id="mask9_1156_1295" style="mask-type:luminance" maskUnits="userSpaceOnUse" x="0" y="0" width="189" height="32">
<path d="M188.746 0H0.142578V32H188.746V0Z" fill="white"/>
</mask>
<g mask="url(#mask9_1156_1295)">
<path d="M8.73657 21.1754L4.72506 21.1717V16.3829C4.72506 15.3552 5.12289 14.8284 5.99592 14.7032H8.7292C10.6779 14.7032 11.9377 15.9335 11.945 17.9227C11.945 19.9671 10.7147 21.1754 8.73657 21.1754ZM4.72506 8.25307V6.99325C4.72506 5.88815 5.1892 5.36508 6.21694 5.29877H8.26874C10.0259 5.29877 11.0794 6.3523 11.0794 8.11309C11.0794 9.45763 10.3574 11.0232 8.33137 11.0232H4.72506V8.25307ZM13.8495 13.0345L13.1275 12.6256L13.7574 12.0841C14.4978 11.4542 15.7245 10.0286 15.7245 7.57159C15.7245 3.81057 12.8107 1.38672 8.29821 1.38672H2.56643C1.22926 1.43461 0.157313 2.52865 0.142578 3.86582V25.2016H8.40504C13.4222 25.2016 16.6565 22.472 16.6565 18.2432C16.6565 15.974 15.6066 14.0254 13.8495 13.0345Z" fill="#191825" fill-opacity="0.5"/>
</g>
<mask id="mask10_1156_1295" style="mask-type:luminance" maskUnits="userSpaceOnUse" x="0" y="0" width="189" height="32">
<path d="M188.746 0H0.142578V32H188.746V0Z" fill="white"/>
</mask>
<g mask="url(#mask10_1156_1295)">
<path d="M182.974 7.68728C180.918 7.69096 178.97 8.63766 177.688 10.2511L177.331 10.7005L177.051 10.1959C176.137 8.53084 174.571 7.69096 172.383 7.69096C170.096 7.69096 168.56 8.96551 167.845 9.72803L167.381 10.2327L167.2 9.56595C166.943 8.60819 166.088 8.08143 164.799 8.08143H162.728L162.706 25.2842H167.407V17.6884C167.407 17.0217 167.488 16.366 167.654 15.6771C168.103 13.8427 169.337 11.8682 171.411 12.0635C172.685 12.1887 173.312 13.1759 173.312 15.0804V25.2805H178.045V17.6847C178.045 16.8522 178.123 16.226 178.31 15.6072C178.686 13.8537 179.979 12.0561 181.979 12.0561C183.427 12.0561 183.965 12.8739 183.965 15.0804V22.7645C183.965 24.4995 184.738 25.2805 186.477 25.2805H188.687L188.691 14.2995C188.706 9.90853 186.772 7.68728 182.974 7.68728ZM140.195 19.3092C140.181 19.324 138.158 21.4605 135.495 21.4605C133.068 21.4605 130.618 19.9723 130.618 16.6496C130.618 13.7801 132.519 11.7725 135.241 11.7725C136.125 11.7725 137.127 12.0893 137.285 12.6197L137.307 12.7081C137.514 13.4633 138.203 13.9827 138.98 13.979L141.555 13.9827V11.7283C141.555 8.75554 137.779 7.68359 135.234 7.68359C129.797 7.68359 125.855 11.4667 125.855 16.6791C125.855 21.8878 129.756 25.6709 135.134 25.6709C139.801 25.6709 142.336 22.6024 142.361 22.5767L142.494 22.4109L140.453 19.0256L140.195 19.3092Z" fill="#191825" fill-opacity="0.5"/>
</g>
</g>
</svg>
