<svg width="175" height="32" viewBox="0 0 175 32" fill="none" xmlns="http://www.w3.org/2000/svg">
<path d="M100.291 31.14L113.595 1.03163C113.805 0.57475 113.558 0.181833 113.047 0.181833H103.726C103.453 0.197332 103.19 0.285015 102.962 0.435924C102.734 0.586832 102.55 0.795556 102.429 1.04077L89.289 31.14C89.0971 31.606 89.3438 31.9898 89.8464 31.9898H98.9931C99.5048 31.9898 100.09 31.606 100.291 31.14ZM147.998 23.035L168.649 0.190971H144.498L139.034 8.99048H148.51L127.521 31.999H153.079L162.6 23.035H147.998ZM59.6192 0.181833H43.6284C43.1544 0.209305 42.696 0.361515 42.2996 0.623061C41.9033 0.884606 41.5831 1.2462 41.3714 1.67126L28.7889 30.5095C28.4234 31.3319 28.8712 31.999 29.7667 31.999H37.689C38.5844 31.999 39.6079 31.3319 39.9551 30.5187L43.5462 22.3405H47.2652C48.4256 22.2674 48.9191 22.6969 48.2794 24.0401L45.5199 30.5095C45.1727 31.3319 45.6113 31.999 46.5068 31.999H54.4291C54.9049 31.974 55.3656 31.8229 55.7638 31.5612C56.1621 31.2994 56.4835 30.9365 56.6952 30.5095L60.2954 22.1852C61.4285 19.4804 59.7928 17.3879 57.417 17.2783C59.5187 16.5199 61.4559 14.4274 62.3239 12.5267L64.188 8.14069C66.4359 3.0419 64.8368 0.11787 59.6192 0.190971M54.959 9.28289L52.9853 13.6232C52.5284 14.6649 51.8705 14.7472 51.2126 14.7198H46.7626L49.7415 7.95793H54.0087C55.0504 8.0219 55.3154 8.39654 54.959 9.28289ZM90.7419 0.172696H73.8008C73.4615 0.190378 73.133 0.297824 72.8488 0.484053C72.5647 0.670282 72.335 0.928617 72.1834 1.23266L59.2172 30.9299C58.9704 31.5147 59.272 31.9807 59.9116 31.9807H78.0498C83.7973 31.8985 87.096 30.6283 89.7185 24.5427L91.5825 20.4856C93.0446 17.0133 91.61 15.5056 88.8687 15.067C91.1531 14.3634 92.8709 12.2161 93.6111 10.3246L95.1279 7.10814C96.992 2.81346 95.4386 0.11787 90.7327 0.172696M82.4267 20.0927L81.2753 22.4045C80.6997 24.0127 79.6945 24.4513 78.2782 24.4696H72.9784L75.5186 18.4845H80.8184C82.317 18.5941 82.9018 18.9596 82.4267 20.0927ZM85.4695 9.43822L84.6745 11.2657L84.5557 11.5033C84.4237 11.8845 84.1693 12.2114 83.8321 12.4329C83.4949 12.6543 83.0939 12.758 82.6917 12.7278H78.0954L80.1971 7.88483H84.8847C85.7253 7.93966 85.8624 8.48791 85.4695 9.43822ZM116.528 0.181833L112.59 8.99048H118.21C118.593 8.99048 118.776 9.26461 118.621 9.62098L108.798 31.3685C108.633 31.7157 108.825 31.999 109.209 31.999H119.215C119.598 31.999 120.037 31.7157 120.192 31.3593L129.622 9.62098C129.713 9.43813 129.85 9.28256 130.02 9.17017C130.19 9.05779 130.387 8.99262 130.591 8.98135H136.357L141.785 0.181833H116.528ZM33.5131 11.019L34.7558 8.30516C37.2595 2.58502 35.6056 0.127008 30.6896 0.190971H18.8564C13.986 0.127008 9.92893 2.86829 7.68108 7.96707L4.02604 18.2926H0.572021L7.17851 27.2109L18.0979 18.2926H15.3201L18.5274 10.8454C19.0483 9.62098 19.9437 9.03617 20.9032 8.99048H22.7673C23.2059 9.00876 23.5074 9.14582 23.681 9.33771L29.4743 4.46737L33.5131 11.019Z" fill="#191825" fill-opacity="0.5"/>
<path d="M6.93188 29.8327L2.07068 23.674L1.81482 24.2222C-0.442165 29.3576 -0.0675225 31.9161 4.80282 31.9892H16.4807C21.3145 31.9161 25.5452 29.3576 27.8113 24.2222L31.2836 16.2634H34.3904L29.0906 7.33594L18.2625 16.2634H21.2322L19.0392 21.3347C18.5092 22.413 17.7051 22.9978 16.8462 23.0343H15.2928L6.93188 29.8327Z" fill="#191825" fill-opacity="0.5"/>
<path d="M172.496 0.000121574C172.925 0.000121574 173.291 0.155461 173.593 0.457002C173.894 0.758543 174.049 1.12405 174.049 1.55351C174.049 1.97384 173.894 2.33935 173.593 2.65003C173.291 2.96071 172.925 3.10691 172.496 3.10691C172.292 3.11005 172.089 3.07111 171.9 2.99251C171.712 2.91391 171.541 2.79733 171.4 2.65003C171.098 2.33935 170.943 1.97384 170.943 1.55351C170.943 1.13318 171.098 0.749405 171.4 0.457002C171.541 0.310133 171.712 0.193842 171.901 0.115274C172.089 0.0367063 172.292 -0.00248031 172.496 0.000121574ZM172.496 2.8145C172.664 2.81829 172.83 2.78783 172.986 2.72499C173.142 2.66214 173.283 2.56823 173.401 2.449C173.52 2.33132 173.615 2.19028 173.677 2.03467C173.74 1.87905 173.77 1.71216 173.766 1.54438C173.769 1.37812 173.738 1.21297 173.676 1.05902C173.613 0.905057 173.519 0.765513 173.401 0.648891C173.283 0.52922 173.142 0.435021 172.986 0.372144C172.831 0.309268 172.664 0.279057 172.496 0.283387C172.33 0.279772 172.164 0.310346 172.01 0.373218C171.856 0.436089 171.717 0.529918 171.601 0.648891C171.354 0.895607 171.235 1.19715 171.235 1.54438C171.235 1.89161 171.354 2.20228 171.601 2.449C171.847 2.69571 172.149 2.8145 172.496 2.8145ZM173.291 2.3759H172.925L172.469 1.71799H172.277V2.3759H171.948V0.703717H172.469C172.651 0.703717 172.798 0.749405 172.907 0.831644C173.017 0.92302 173.081 1.04181 173.081 1.19715C173.081 1.39818 172.971 1.55351 172.761 1.63575L173.291 2.3759ZM172.286 1.44386H172.459C172.67 1.44386 172.77 1.36162 172.77 1.20629C172.77 1.05095 172.679 0.977845 172.469 0.977845H172.286V1.44386Z" fill="#191825" fill-opacity="0.5"/>
</svg>
